# xmcd
#
# Track frame offsets:
#	150
#	19435
#	38615
#	49360
#	70265
#	90840
#	104302
#	120650
#	140185
#	154000
#	177395
#	201497
#	216992
#	226100
#	235875
#
# Disc length: 3305 seconds
#
# Revision: 0
# Processed by: cddbd v1.5.1PL0 Copyright (c) Steve Scherf et al.
# Submitted via: dBpowerAMP V4.0
#
DISCID=d50ce70f
DTITLE=Linda Ronstadt - I'm All Yours
DYEAR=1900
DGENRE=Country
TTITLE0=Nightingale
TTITLE1=I Fall To Pieces
TTITLE2=Silver Threads and Golden Needles
TTITLE3=Love Has No Pride
TTITLE4=Rock Me On The Water
TTITLE5=I Can't Help I'm Still In Love With You
TTITLE6=It Doesn't Matter Anymore
TTITLE7=Dark End Of The Street
TTITLE8=I Believe In You
TTITLE9=Crazy Arms
TTITLE10=Long Long Time
TTITLE11=You're No Good
TTITLE12=Heartache
TTITLE13=Sailin' Shoes
TTITLE14=Willin'
EXTD=
EXTT0=
EXTT1=
EXTT2=
EXTT3=
EXTT4=
EXTT5=
EXTT6=
EXTT7=
EXTT8=
EXTT9=
EXTT10=
EXTT11=
EXTT12=
EXTT13=
EXTT14=
PLAYORDER=
